<svg version="1.1" xmlns="http://www.w3.org/2000/svg" xmlns:xlink="http://www.w3.org/1999/xlink" width="476" height="340"><defs><linearGradient id="IUbkTBFTVodM" x1="0px" x2="32px" y1="0px" y2="0px" gradientUnits="userSpaceOnUse"><stop offset="0" stop-color="#19e519"/><stop offset="1" stop-color="#807f7f"/></linearGradient><linearGradient id="xItPodTxKktt" x1="0px" x2="32px" y1="0px" y2="0px" gradientUnits="userSpaceOnUse"><stop offset="0" stop-color="#19e519"/><stop offset="1" stop-color="#01fd01"/></linearGradient><linearGradient id="wLTmuqydwsfn" x1="0px" x2="32px" y1="0px" y2="0px" gradientUnits="userSpaceOnUse"><stop offset="0" stop-color="#19e519"/><stop offset="1" stop-color="#01fd01"/></linearGradient><linearGradient id="QqIvIPVwfEFL" x1="0px" x2="32px" y1="0px" y2="0px" gradientUnits="userSpaceOnUse"><stop offset="0" stop-color="#2cd22c"/><stop offset="1" stop-color="#807f7f"/></linearGradient></defs><g><rect fill="#000000" stroke="none" x="0" y="0" width="476" height="340"/><g transform="scale(1,1) translate(-218,-94)"><path fill="none" stroke="#19e519" paint-order="fill stroke markers" d=" M 480 288 L 480 312" stroke-linecap="round" stroke-miterlimit="10" stroke-width="3" stroke-dasharray=""/><path fill="none" stroke="#807f7f" paint-order="fill stroke markers" d=" M 480 344 L 480 368" stroke-linecap="round" stroke-miterlimit="10" stroke-width="3" stroke-dasharray=""/><g transform="matrix(0,1,-1,0,480,312)"><rect fill="none" stroke="url(#IUbkTBFTVodM)" x="0" y="-6" width="32" height="12" stroke-linecap="round" stroke-miterlimit="10" stroke-width="3" stroke-dasharray=""/></g><text fill="#ffffff" stroke="none" font-family="sans-serif" font-size="12px" font-style="normal" font-weight="normal" text-decoration="normal" x="490" y="334" text-anchor="start" dominant-baseline="alphabetic">1M</text><path fill="none" stroke="#19e519" paint-order="fill stroke markers" d=" M 480 240 L 480 288" stroke-linecap="round" stroke-miterlimit="10" stroke-width="3" stroke-dasharray=""/><text fill="#ffffff" stroke="none" font-family="sans-serif" font-size="12px" font-style="normal" font-weight="normal" text-decoration="normal" x="486" y="270" text-anchor="start" dominant-baseline="alphabetic"></text><path fill="none" stroke="#19e519" paint-order="fill stroke markers" d=" M 480 288 L 520 288" stroke-linecap="round" stroke-miterlimit="10" stroke-width="3" stroke-dasharray=""/><path fill="none" stroke="#01fd01" paint-order="fill stroke markers" d=" M 552 288 L 592 288" stroke-linecap="round" stroke-miterlimit="10" stroke-width="3" stroke-dasharray=""/><g transform="matrix(1,0,0,1,520,288)"><rect fill="none" stroke="url(#xItPodTxKktt)" x="0" y="-6" width="32" height="12" stroke-linecap="round" stroke-miterlimit="10" stroke-width="3" stroke-dasharray=""/></g><text fill="#ffffff" stroke="none" font-family="sans-serif" font-size="12px" font-style="normal" font-weight="normal" text-decoration="normal" x="522" y="278" text-anchor="start" dominant-baseline="alphabetic">300k</text><path fill="none" stroke="#01fd01" paint-order="fill stroke markers" d=" M 592 288 L 592 224" stroke-linecap="round" stroke-miterlimit="10" stroke-width="3" stroke-dasharray=""/><text fill="#ffffff" stroke="none" font-family="sans-serif" font-size="12px" font-style="normal" font-weight="normal" text-decoration="normal" x="598" y="262" text-anchor="start" dominant-baseline="alphabetic"></text><path fill="none" stroke="#01fd01" paint-order="fill stroke markers" d=" M 592 224 L 624 224" stroke-linecap="round" stroke-miterlimit="10" stroke-width="3" stroke-dasharray=""/><text fill="#ffffff" stroke="none" font-family="sans-serif" font-size="12px" font-style="normal" font-weight="normal" text-decoration="normal" x="608" y="218" text-anchor="start" dominant-baseline="alphabetic"></text><path fill="none" stroke="#807f7f" paint-order="fill stroke markers" d=" M 480 368 L 480 384" stroke-linecap="round" stroke-miterlimit="10" stroke-width="3" stroke-dasharray=""/><path fill="none" stroke="#807f7f" paint-order="fill stroke markers" d=" M 490 384 L 470 384" stroke-linecap="round" stroke-miterlimit="10" stroke-width="3" stroke-dasharray=""/><path fill="none" stroke="#807f7f" paint-order="fill stroke markers" d=" M 486 389 L 474 389" stroke-linecap="round" stroke-miterlimit="10" stroke-width="3" stroke-dasharray=""/><path fill="none" stroke="#807f7f" paint-order="fill stroke markers" d=" M 482 394 L 478 394" stroke-linecap="round" stroke-miterlimit="10" stroke-width="3" stroke-dasharray=""/><path fill="none" stroke="#59a659" paint-order="fill stroke markers" d=" M 480 208 L 432 208" stroke-linecap="round" stroke-miterlimit="10" stroke-width="3" stroke-dasharray=""/><text fill="#ffffff" stroke="none" font-family="sans-serif" font-size="12px" font-style="normal" font-weight="normal" text-decoration="normal" x="456" y="202" text-anchor="start" dominant-baseline="alphabetic"></text><path fill="none" stroke="#59a659" paint-order="fill stroke markers" d=" M 432 208 L 401 208" stroke-linecap="round" stroke-miterlimit="10" stroke-width="3" stroke-dasharray=""/><path fill="none" stroke="#6c936c" paint-order="fill stroke markers" d=" M 367 208 L 336 208" stroke-linecap="round" stroke-miterlimit="10" stroke-width="3" stroke-dasharray=""/><path fill="none" stroke="#808080" paint-order="fill stroke markers" d=" M 400.66 208 A 16.66 16.66 0 1 1 400.6599916700007 207.98334000277666" stroke-linecap="round" stroke-miterlimit="10" stroke-width="3" stroke-dasharray=""/><path fill="none" stroke="#808080" paint-order="fill stroke markers" d=" M 374 208 L 375 206 L 376 204 L 377 202 L 378 201 L 379 201 L 380 201 L 381 202 L 382 204 L 383 206 L 384 208 L 385 210 L 386 212 L 387 214 L 388 215 L 389 215 L 390 215 L 391 214 L 392 212 L 393 210 L 394 208" stroke-linecap="round" stroke-miterlimit="10" stroke-width="3" stroke-dasharray=""/><text fill="#ffffff" stroke="none" font-family="sans-serif" font-size="12px" font-style="normal" font-weight="normal" text-decoration="normal" x="365" y="189" text-anchor="start" dominant-baseline="alphabetic">400Hz</text><text fill="#ffffff" stroke="none" font-family="sans-serif" font-size="12px" font-style="normal" font-weight="normal" text-decoration="normal" x="360" y="202" text-anchor="start" dominant-baseline="alphabetic">*</text><path fill="none" stroke="#6c936c" paint-order="fill stroke markers" d=" M 336 208 L 305 208" stroke-linecap="round" stroke-miterlimit="10" stroke-width="3" stroke-dasharray=""/><path fill="none" stroke="#808080" paint-order="fill stroke markers" d=" M 304.66 208 A 16.66 16.66 0 1 1 304.6599916700007 207.98334000277666" stroke-linecap="round" stroke-miterlimit="10" stroke-width="3" stroke-dasharray=""/><path fill="none" stroke="#808080" paint-order="fill stroke markers" d=" M 278 208 L 279 206 L 280 204 L 281 202 L 282 201 L 283 201 L 284 201 L 285 202 L 286 204 L 287 206 L 288 208 L 289 210 L 290 212 L 291 214 L 292 215 L 293 215 L 294 215 L 295 214 L 296 212 L 297 210 L 298 208" stroke-linecap="round" stroke-miterlimit="10" stroke-width="3" stroke-dasharray=""/><text fill="#ffffff" stroke="none" font-family="sans-serif" font-size="12px" font-style="normal" font-weight="normal" text-decoration="normal" x="273" y="189" text-anchor="start" dominant-baseline="alphabetic">40Hz</text><g><g><text fill="#ffffff" stroke="none" font-family="sans-serif" font-size="14px" font-style="normal" font-weight="normal" text-decoration="normal" x="432" y="144" text-anchor="middle" dominant-baseline="central">TP</text></g><g><text fill="#ffffff" stroke="none" font-family="sans-serif" font-size="14px" font-style="normal" font-weight="normal" text-decoration="normal" x="432" y="156" text-anchor="middle" dominant-baseline="central">1.553 V</text></g><path fill="none" stroke="#59a659" paint-order="fill stroke markers" d=" M 432 208 L 432 160" stroke-linecap="round" stroke-miterlimit="10" stroke-width="3" stroke-dasharray=""/></g><path fill="none" stroke="#19e519" paint-order="fill stroke markers" d=" M 480 288 L 448 288" stroke-linecap="round" stroke-miterlimit="10" stroke-width="3" stroke-dasharray=""/><path fill="none" stroke="#01fd01" paint-order="fill stroke markers" d=" M 416 288 L 384 288" stroke-linecap="round" stroke-miterlimit="10" stroke-width="3" stroke-dasharray=""/><g transform="matrix(-1,0,0,-1,448,288)"><rect fill="none" stroke="url(#wLTmuqydwsfn)" x="0" y="-6" width="32" height="12" stroke-linecap="round" stroke-miterlimit="10" stroke-width="3" stroke-dasharray=""/></g><text fill="#ffffff" stroke="none" font-family="sans-serif" font-size="12px" font-style="normal" font-weight="normal" text-decoration="normal" x="424" y="278" text-anchor="start" dominant-baseline="alphabetic">1M</text><path fill="none" stroke="#01fd01" paint-order="fill stroke markers" d=" M 384 288 L 369 288" stroke-linecap="round" stroke-miterlimit="10" stroke-width="3" stroke-dasharray=""/><g><text fill="#ffffff" stroke="none" font-family="sans-serif" font-size="12px" font-style="normal" font-weight="normal" text-decoration="normal" x="340" y="288" text-anchor="start" dominant-baseline="central">+5V</text></g><path fill="none" stroke="#59a659" paint-order="fill stroke markers" d=" M 480 208 L 510 208" stroke-linecap="round" stroke-miterlimit="10" stroke-width="3" stroke-dasharray=""/><path fill="none" stroke="#19e519" paint-order="fill stroke markers" d=" M 480 240 L 510 240" stroke-linecap="round" stroke-miterlimit="10" stroke-width="3" stroke-dasharray=""/><path fill="none" stroke="#01fd01" paint-order="fill stroke markers" d=" M 562 224 L 592 224" stroke-linecap="round" stroke-miterlimit="10" stroke-width="3" stroke-dasharray=""/><path fill="none" stroke="#c0c0c0" paint-order="fill stroke markers" d=" M 510 192 L 510 256 L 562 224 Z" stroke-linecap="round" stroke-miterlimit="10" stroke-width="3" stroke-dasharray=""/><g><text fill="#c0c0c0" stroke="none" font-family="sans-serif" font-size="14px" font-style="normal" font-weight="normal" text-decoration="normal" x="520" y="206" text-anchor="middle" dominant-baseline="central">-</text></g><g><text fill="#c0c0c0" stroke="none" font-family="sans-serif" font-size="14px" font-style="normal" font-weight="normal" text-decoration="normal" x="520" y="240" text-anchor="middle" dominant-baseline="central">+</text></g><g><g><text fill="#ffffff" stroke="none" font-family="sans-serif" font-size="14px" font-style="normal" font-weight="normal" text-decoration="normal" x="592" y="176" text-anchor="middle" dominant-baseline="central">TP</text></g><g><text fill="#ffffff" stroke="none" font-family="sans-serif" font-size="14px" font-style="normal" font-weight="normal" text-decoration="normal" x="592" y="188" text-anchor="middle" dominant-baseline="central">5 V</text></g><path fill="none" stroke="#01fd01" paint-order="fill stroke markers" d=" M 592 224 L 592 192" stroke-linecap="round" stroke-miterlimit="10" stroke-width="3" stroke-dasharray=""/></g><path fill="none" stroke="#2cd22c" paint-order="fill stroke markers" d=" M 624 304 L 624 320" stroke-linecap="round" stroke-miterlimit="10" stroke-width="3" stroke-dasharray=""/><path fill="none" stroke="#807f7f" paint-order="fill stroke markers" d=" M 624 352 L 624 368" stroke-linecap="round" stroke-miterlimit="10" stroke-width="3" stroke-dasharray=""/><g transform="matrix(0,1,-1,0,624,320)"><rect fill="none" stroke="url(#QqIvIPVwfEFL)" x="0" y="-6" width="32" height="12" stroke-linecap="round" stroke-miterlimit="10" stroke-width="3" stroke-dasharray=""/></g><text fill="#ffffff" stroke="none" font-family="sans-serif" font-size="12px" font-style="normal" font-weight="normal" text-decoration="normal" x="634" y="342" text-anchor="start" dominant-baseline="alphabetic">1k</text><path fill="none" stroke="#807f7f" paint-order="fill stroke markers" d=" M 624 368 L 624 384" stroke-linecap="round" stroke-miterlimit="10" stroke-width="3" stroke-dasharray=""/><path fill="none" stroke="#807f7f" paint-order="fill stroke markers" d=" M 634 384 L 614 384" stroke-linecap="round" stroke-miterlimit="10" stroke-width="3" stroke-dasharray=""/><path fill="none" stroke="#807f7f" paint-order="fill stroke markers" d=" M 630 389 L 618 389" stroke-linecap="round" stroke-miterlimit="10" stroke-width="3" stroke-dasharray=""/><path fill="none" stroke="#807f7f" paint-order="fill stroke markers" d=" M 626 394 L 622 394" stroke-linecap="round" stroke-miterlimit="10" stroke-width="3" stroke-dasharray=""/><path fill="none" stroke="#01fd01" paint-order="fill stroke markers" d=" M 624 224 L 624 252" stroke-linecap="round" stroke-miterlimit="10" stroke-width="3" stroke-dasharray=""/><path fill="none" stroke="#2cd22c" paint-order="fill stroke markers" d=" M 624 276 L 624 304" stroke-linecap="round" stroke-miterlimit="10" stroke-width="3" stroke-dasharray=""/><path fill="none" stroke="#808080" paint-order="fill stroke markers" d=" M 635.76 264 A 11.76 11.76 0 1 1 635.7599941200004 263.98824000196" stroke-linecap="round" stroke-miterlimit="10" stroke-width="3" stroke-dasharray=""/><path fill="#c60000" stroke="none" paint-order="stroke fill markers" d=" M 632 264 A 8 8 0 1 1 631.9999999998873 263.9999575425633 Z"/><path fill="#ffffff" stroke="none" paint-order="stroke fill markers" d=" M 435 208 A 3 3 0 1 1 434.99999999995777 207.99998407846124 Z"/><path fill="#ffffff" stroke="none" paint-order="stroke fill markers" d=" M 483 288 A 3 3 0 1 1 482.99999999995777 287.99998407846124 Z"/><path fill="#ffffff" stroke="none" paint-order="stroke fill markers" d=" M 595 224 A 3 3 0 1 1 594.9999999999577 223.99998407846124 Z"/></g></g></svg>